<svg xmlns="http://www.w3.org/2000/svg" viewBox="0 0 21.52 21.52"><defs><style>.cls-1{fill:#719c50;}.cls-2{fill:#89c767;}.cls-3{fill:#fff;}</style></defs><title>Asset 7</title><g id="Layer_2" data-name="Layer 2"><g id="Vrstva_2" data-name="Vrstva 2"><rect class="cls-1" width="21.52" height="21.52" rx="4.82"/></g><g id="Vrstva_2_kopie" data-name="Vrstva 2 kopie"><path class="cls-2" d="M21.52,14c0,2.23-2.16,4-4.82,4H4.82C2.16,18,0,16.19,0,14V4C0,1.81,2.16,0,4.82,0H16.7c2.66,0,4.82,1.81,4.82,4Z"/></g><g id="Vrstva_1" data-name="Vrstva 1"><path class="cls-1" d="M14.35,7.21c0-2.86-3.23-4.65-3.23-4.65s.73,1.6-1,3.94c-1.21,1.69.56,3.84,1.82,3.94a43.73,43.73,0,0,0,.17-4.76,41.31,41.31,0,0,1,.19,4.74C13.47,10.26,14.35,9,14.35,7.21Z"/><path class="cls-1" d="M8.86,11.92a1.57,1.57,0,0,0,.26-2.2,3.72,3.72,0,0,1-1.1-2,3.36,3.36,0,0,0-1.09,2.84c.22,1.06.93,1.64,1.61,1.49h0a5.61,5.61,0,0,1-.68-2.56A4.07,4.07,0,0,0,8.86,11.92Z"/><path class="cls-1" d="M12,10.44a11.73,11.73,0,0,1-.28,1.71c-.12.43-.32,1.06-.55,1.72L9.46,12.51a3.73,3.73,0,0,1-.6-.59.81.81,0,0,1-.29.15,2.82,2.82,0,0,0,.59.7c.66.56,1.63,1.35,1.84,1.52-.5,1.44-1,2.9-1,2.9h.9s.92-2.94,1.28-4.76a13,13,0,0,0,.19-2,1.14,1.14,0,0,1-.26,0Z"/></g><g id="Vrstva_1_kopie" data-name="Vrstva 1 kopie"><path class="cls-3" d="M13.79,6.46c0-2.86-3.23-4.65-3.23-4.65s.72,1.6-1,3.94c-1.22,1.69.56,3.84,1.82,3.94a43.73,43.73,0,0,0,.17-4.76,44.07,44.07,0,0,1,.19,4.74C12.91,9.51,13.79,8.28,13.79,6.46Z"/><path class="cls-3" d="M8.29,11.17A1.57,1.57,0,0,0,8.56,9,3.79,3.79,0,0,1,7.45,7,3.39,3.39,0,0,0,6.36,9.84c.23,1.06.93,1.64,1.62,1.49H8a5.55,5.55,0,0,1-.69-2.56A4.07,4.07,0,0,0,8.29,11.17Z"/><path class="cls-3" d="M11.41,9.69a11.64,11.64,0,0,1-.29,1.71c-.11.43-.32,1.06-.54,1.72L8.9,11.76a3.43,3.43,0,0,1-.61-.59.7.7,0,0,1-.28.15,2.82,2.82,0,0,0,.59.7c.66.56,1.62,1.35,1.83,1.52-.49,1.44-1,2.9-1,2.9h.91s.92-2.94,1.28-4.76a13,13,0,0,0,.19-2,1.23,1.23,0,0,1-.27,0Z"/></g></g></svg>