<svg xmlns="http://www.w3.org/2000/svg" viewBox="0 0 21.52 21.52"><defs><style>.cls-1{fill:#475b28;}.cls-2{fill:#688337;}.cls-3{fill:#fff;}</style></defs><title>Asset 5</title><g id="Layer_2" data-name="Layer 2"><g id="Vrstva_2" data-name="Vrstva 2"><rect class="cls-1" width="21.52" height="21.52" rx="4.82"/></g><g id="Vrstva_2_kopie" data-name="Vrstva 2 kopie"><path class="cls-2" d="M21.52,14c0,2.23-2.16,4-4.82,4H4.82C2.16,18,0,16.19,0,14V4C0,1.81,2.16,0,4.82,0H16.7c2.66,0,4.82,1.81,4.82,4Z"/></g><g id="Vrstva_1" data-name="Vrstva 1"><path class="cls-1" d="M11.24,13.85c1.53,0,2.76-1.6,2.76-3.58s-2.76-7.59-2.76-7.59S8.48,8.3,8.48,10.27,9.72,13.85,11.24,13.85Z"/><path class="cls-1" d="M7,13.31c0,1.11,1.92,2,4.27,2s4.27-.91,4.27-2c0-.52-.42-1-1.1-1.35-.06.17-.13.33-.2.48a1.14,1.14,0,0,1,.53.87c0,.91-1.57,1.66-3.5,1.66s-3.5-.75-3.5-1.66a1.16,1.16,0,0,1,.53-.87c-.07-.15-.13-.31-.19-.48C7.39,12.32,7,12.79,7,13.31Z"/><path class="cls-1" d="M5.3,13.31c0,1.55,2.66,2.81,5.94,2.81s6-1.26,6-2.81c0-1-1-1.8-2.57-2.31,0,.15,0,.29-.07.43,1.14.45,1.87,1.13,1.87,1.88,0,1.35-2.32,2.44-5.18,2.44s-5.17-1.09-5.17-2.44c0-.75.73-1.43,1.87-1.88,0-.14-.06-.28-.08-.43C6.31,11.51,5.3,12.36,5.3,13.31Z"/><path class="cls-1" d="M14.66,10.13c0,.07,0,.14,0,.19s0,.15,0,.23c2,.56,3.36,1.58,3.36,2.76,0,1.77-3,3.2-6.77,3.2s-6.79-1.43-6.79-3.2c0-1.18,1.36-2.2,3.36-2.76,0-.07,0-.15,0-.23a1.54,1.54,0,0,1,0-.19c-2.45.59-4.14,1.79-4.14,3.18,0,2,3.39,3.57,7.56,3.57s7.54-1.6,7.54-3.57C18.79,11.92,17.11,10.72,14.66,10.13Z"/></g><g id="Vrstva_1_kopie" data-name="Vrstva 1 kopie"><path class="cls-3" d="M10.68,13.1c1.52,0,2.76-1.6,2.76-3.58s-2.76-7.59-2.76-7.59S7.92,7.55,7.92,9.52,9.16,13.1,10.68,13.1Z"/><path class="cls-3" d="M6.41,12.56c0,1.11,1.91,2,4.27,2s4.27-.91,4.27-2c0-.52-.42-1-1.11-1.35a3.43,3.43,0,0,1-.19.48,1.14,1.14,0,0,1,.53.87c0,.91-1.57,1.66-3.5,1.66s-3.5-.75-3.5-1.66a1.16,1.16,0,0,1,.53-.87,3.43,3.43,0,0,1-.19-.48C6.83,11.57,6.41,12,6.41,12.56Z"/><path class="cls-3" d="M4.74,12.56c0,1.55,2.66,2.81,5.94,2.81s5.95-1.26,5.95-2.81c0-1-1-1.8-2.57-2.31,0,.15-.05.29-.08.43,1.15.45,1.87,1.13,1.87,1.88,0,1.35-2.32,2.44-5.17,2.44s-5.17-1.09-5.17-2.44c0-.75.72-1.43,1.86-1.88,0-.14,0-.28-.07-.43C5.75,10.76,4.74,11.61,4.74,12.56Z"/><path class="cls-3" d="M14.09,9.38a1.54,1.54,0,0,1,0,.19c0,.08,0,.15,0,.23,2,.56,3.36,1.58,3.36,2.76,0,1.77-3,3.2-6.78,3.2S3.9,14.33,3.9,12.56c0-1.18,1.35-2.2,3.36-2.76,0-.07,0-.15,0-.23s0-.12,0-.19c-2.45.59-4.13,1.79-4.13,3.18,0,2,3.38,3.57,7.55,3.57s7.55-1.6,7.55-3.57C18.23,11.17,16.54,10,14.09,9.38Z"/></g></g></svg>