<svg xmlns="http://www.w3.org/2000/svg" viewBox="0 0 21.61 21.6"><defs><style>.cls-1{fill:#a4b03d;}.cls-2{fill:#cadc49;}.cls-3{fill:#fff;}</style></defs><title>Asset 6</title><g id="Layer_2" data-name="Layer 2"><g id="Vrstva_2" data-name="Vrstva 2"><rect class="cls-1" x="0.04" y="0.04" width="21.52" height="21.52" rx="4.82" transform="translate(-0.07 21.53) rotate(-89.61)"/></g><g id="Vrstva_2_kopie" data-name="Vrstva 2 kopie"><path class="cls-2" d="M21.54,14.08c0,2.23-2.19,4-4.85,4L4.82,18C2.15,18,0,16.16,0,13.93L.09,4c0-2.23,2.18-4,4.85-4L16.81.08c2.66,0,4.81,1.84,4.8,4.07Z"/></g><g id="Vrstva_1" data-name="Vrstva 1"><path class="cls-1" d="M2.31,13.2a.4.4,0,0,0,.4.4H4.6a.37.37,0,0,1,0-.11,1.6,1.6,0,0,1,3.19,0s0,.08,0,.12H8.3l6.39,0s0-.07,0-.11a1.6,1.6,0,0,1,3.19,0s0,.08,0,.11l1.91,0v0a.41.41,0,0,0,.3-.38.39.39,0,0,0-.3-.38,5.69,5.69,0,0,0-.08-.83.29.29,0,0,0,.09-.2V11.8a.3.3,0,0,0-.3-.28h0c-.5-.62-2.8-.93-2.8-.93S15.79,6.76,9.79,7a6.47,6.47,0,0,0-5.27,3.59,1.59,1.59,0,0,0-.87.52,2.67,2.67,0,0,0-.77,1.72l0,0H2.71A.4.4,0,0,0,2.31,13.2ZM14.42,9a2,2,0,0,1,.89,1.42h-.9Zm-3.8-1.19a5.92,5.92,0,0,1,.61,0,6.06,6.06,0,0,1,2.56.78l0,1.84-3.17,0Zm-4.8,2.54c.46-1,1.35-2.23,3.93-2.46v2.49Z"/><path class="cls-1" d="M16.28,12.26a1.32,1.32,0,0,1,0,2.64,1.32,1.32,0,1,1,0-2.64Z"/><path class="cls-1" d="M6.2,12.2a1.3,1.3,0,0,1,1.3,1.32A1.32,1.32,0,1,1,6.2,12.2Z"/></g><g id="Vrstva_1_kopie" data-name="Vrstva 1 kopie"><path class="cls-3" d="M1.75,12.45a.41.41,0,0,0,.4.4H4s0-.07,0-.11a1.6,1.6,0,1,1,3.19,0,.43.43,0,0,1,0,.11h.55l6.39,0a.5.5,0,0,1,0-.12,1.6,1.6,0,0,1,3.19,0s0,.07,0,.11h1.91v0a.41.41,0,0,0,.31-.37.42.42,0,0,0-.31-.39,5.83,5.83,0,0,0-.08-.83.25.25,0,0,0,.09-.19v-.11a.31.31,0,0,0-.3-.29h0c-.49-.62-2.8-.93-2.8-.93S15.23,6,9.23,6.24A6.43,6.43,0,0,0,4,9.83a1.59,1.59,0,0,0-.87.52,2.58,2.58,0,0,0-.77,1.71H2.15A.39.39,0,0,0,1.75,12.45ZM13.86,8.22a2,2,0,0,1,.89,1.41h-.9ZM10.06,7c.19,0,.4,0,.61,0a6,6,0,0,1,2.56.78V9.62L10,9.6ZM5.26,9.57c.46-1,1.35-2.24,3.93-2.46V9.59Z"/><path class="cls-3" d="M15.72,11.51a1.32,1.32,0,1,1,0,2.63,1.32,1.32,0,0,1,0-2.63Z"/><path class="cls-3" d="M5.64,11.44A1.33,1.33,0,0,1,7,12.77a1.32,1.32,0,1,1-1.31-1.33Z"/></g></g></svg>