<svg xmlns="http://www.w3.org/2000/svg" viewBox="0 0 21.52 21.52"><defs><style>.cls-1{fill:#475b28;}.cls-2{fill:#688337;}.cls-3{fill:#fff;}</style></defs><title>Asset 2</title><g id="Layer_2" data-name="Layer 2"><g id="Vrstva_2" data-name="Vrstva 2"><rect class="cls-1" width="21.52" height="21.52" rx="4.82"/></g><g id="Vrstva_2_kopie" data-name="Vrstva 2 kopie"><path class="cls-2" d="M21.52,14c0,2.23-2.16,4-4.82,4H4.82C2.16,18,0,16.19,0,14V4C0,1.81,2.16,0,4.82,0H16.7c2.66,0,4.82,1.81,4.82,4Z"/></g><g id="Vrstva_1" data-name="Vrstva 1"><path class="cls-1" d="M14.89,5.86A3.48,3.48,0,0,0,14,4.19a3.78,3.78,0,0,0-3-1.43A3.86,3.86,0,0,0,8,4.19a3.48,3.48,0,0,0-.88,1.67A4.68,4.68,0,0,0,7.2,8.14,23.31,23.31,0,0,0,8.66,11a10.11,10.11,0,0,1,.19,1.1c.17.75.44.75.44.75h3.4s.27,0,.44-.75a10.11,10.11,0,0,1,.19-1.1,23.31,23.31,0,0,0,1.46-2.88A4.68,4.68,0,0,0,14.89,5.86Zm-4.61,1h0s0-.17.07-.18a.57.57,0,0,1,.12.18Zm.21.09s0,0,0,0a.07.07,0,0,1,0,0,.12.12,0,0,1-.08,0s-.05,0-.08-.07Zm1.17-.26h.09c.07,0,.08.07.11.17h-.22A.24.24,0,0,1,11.66,6.67ZM11.49,10a.78.78,0,0,0-.21-.09V8.48h.24a.08.08,0,0,0,.09-.08.09.09,0,0,0-.09-.08h0c.11-.3.32-.89.42-1.24A1,1,0,0,0,12,6.93h.7Zm.36-3,0,.11a.16.16,0,0,1-.09,0s0,0,0,0a.54.54,0,0,1,0-.1Zm-.24.13c0,.08.08.1.12.1h0c-.1.31-.27.8-.4,1.16h-.62c-.15-.41-.35-1-.43-1.27l0,0a.16.16,0,0,0,.15,0A.13.13,0,0,0,10.58,7a.08.08,0,0,0,0,0h1A.93.93,0,0,0,11.61,7.06ZM10.22,7c.07.3.33,1,.45,1.36h-.08a.08.08,0,0,0-.08.08.07.07,0,0,0,.08.08h.23V9.86a.53.53,0,0,0-.17.08l-1.22-3h.77S10.21,7,10.22,7ZM14.3,8a7,7,0,0,1-.83,1.69,10,10,0,0,0-.61,1.13,4.3,4.3,0,0,0-.16.81,2.6,2.6,0,0,1,0,.36,1.43,1.43,0,0,1-.12.36H11.8V10.56a.71.71,0,0,0-.17-.46l1.3-3.19-.18-.07h-.67a2.15,2.15,0,0,0,.14-.26l-.07,0a2.46,2.46,0,0,1-.17.3h0c0-.12,0-.19-.16-.24a.15.15,0,0,0-.17,0s-.06.12,0,.23h-1a.56.56,0,0,0-.16-.24.07.07,0,0,0-.08,0c-.06,0-.09.11-.11.22a1,1,0,0,1-.14-.37l-.08,0a1.46,1.46,0,0,0,.14.39H9.39l-.18.07,1.29,3.16a.75.75,0,0,0-.19.49v1.81H9.45A2,2,0,0,1,9.33,12c0-.09,0-.22-.05-.36a4.3,4.3,0,0,0-.16-.81,10,10,0,0,0-.61-1.13A7,7,0,0,1,7.68,8a4.28,4.28,0,0,1-.11-2A3.14,3.14,0,0,1,8.35,4.5,3.51,3.51,0,0,1,11,3.25,3.37,3.37,0,0,1,13.63,4.5,3.09,3.09,0,0,1,14.41,6,4.28,4.28,0,0,1,14.3,8Z"/><path class="cls-1" d="M12.46,13.13H9.57a.35.35,0,0,0-.35.35.35.35,0,0,0,.35.35h2.89a.35.35,0,0,0,.35-.35A.35.35,0,0,0,12.46,13.13Z"/><path class="cls-1" d="M12.69,14.06H9.34a.11.11,0,0,0-.12.11.12.12,0,0,0,.12.12h3.35a.12.12,0,0,0,.12-.12A.11.11,0,0,0,12.69,14.06Z"/><path class="cls-1" d="M12.69,14.51H9.34a.12.12,0,0,0-.12.12.11.11,0,0,0,.12.11h3.35a.11.11,0,0,0,.12-.11A.12.12,0,0,0,12.69,14.51Z"/><path class="cls-1" d="M12.69,15H9.34a.11.11,0,1,0,0,.22h3.35a.11.11,0,1,0,0-.22Z"/><path class="cls-1" d="M12.51,15.47h-3a.1.1,0,0,0-.1.11c0,.07,0,.12.1.12a2.37,2.37,0,0,1,.62.48c.25.28.09.41.87.41s.65-.17.89-.43a2.63,2.63,0,0,1,.61-.46c.06,0,.1,0,.1-.12A.1.1,0,0,0,12.51,15.47Z"/></g><g id="Vrstva_1_kopie" data-name="Vrstva 1 kopie"><path class="cls-3" d="M14.33,5.11a3.48,3.48,0,0,0-.88-1.67,3.79,3.79,0,0,0-3-1.43,3.84,3.84,0,0,0-3,1.43,3.48,3.48,0,0,0-.88,1.67,4.68,4.68,0,0,0,.11,2.28A22,22,0,0,0,8.1,10.27a10.11,10.11,0,0,1,.19,1.1c.17.75.44.75.44.75h3.4s.27,0,.44-.75a10.11,10.11,0,0,1,.19-1.1,24.79,24.79,0,0,0,1.46-2.88A4.68,4.68,0,0,0,14.33,5.11Zm-4.61,1h0s0-.17.07-.18a.57.57,0,0,1,.12.18Zm.21.09v0s0,0,0,0a.12.12,0,0,1-.08,0,.18.18,0,0,1-.08-.07Zm1.17-.26h.09c.06,0,.08.07.11.17h-.22A.2.2,0,0,1,11.1,5.92ZM10.92,9.2a.72.72,0,0,0-.2-.09V7.73H11A.08.08,0,0,0,11,7.65.09.09,0,0,0,11,7.57H10.9c.12-.3.33-.89.43-1.24a1,1,0,0,0,.12-.15h.7Zm.36-3a.52.52,0,0,1,0,.11.16.16,0,0,1-.09,0s0,0-.05,0a.44.44,0,0,1,0-.1Zm-.23.13c0,.08.08.1.11.1h.06c-.1.31-.27.8-.4,1.16H10.2c-.15-.41-.35-1-.44-1.27l0,0a.18.18,0,0,0,.16,0A.13.13,0,0,0,10,6.22s0,0,0,0h1A.93.93,0,0,0,11.05,6.31Zm-1.4-.1c.08.3.33,1,.46,1.36H10a.09.09,0,0,0-.09.08.08.08,0,0,0,.09.08h.23V9.11a.53.53,0,0,0-.17.08l-1.23-3h.77Zm4.09,1.06A7,7,0,0,1,12.9,9a9.8,9.8,0,0,0-.6,1.13,3.63,3.63,0,0,0-.16.81c0,.14,0,.27-.05.36a1.33,1.33,0,0,1-.13.36h-.72V9.81a.71.71,0,0,0-.17-.46l1.3-3.19-.18-.07h-.67a2.15,2.15,0,0,0,.14-.26l-.07,0a2.36,2.36,0,0,1-.18.3h0a.3.3,0,0,0-.16-.24.17.17,0,0,0-.18,0,.26.26,0,0,0,0,.23H10a.55.55,0,0,0-.15-.24.07.07,0,0,0-.08,0c-.06,0-.09.11-.12.22a1.21,1.21,0,0,1-.13-.37l-.08,0a1.18,1.18,0,0,0,.14.39H8.83l-.18.07L9.93,9.32a.81.81,0,0,0-.19.49v1.81H8.89a1.43,1.43,0,0,1-.12-.36,2.6,2.6,0,0,1,0-.36,4.3,4.3,0,0,0-.16-.81A10,10,0,0,0,8,9a7,7,0,0,1-.83-1.69,4.16,4.16,0,0,1-.11-2,3,3,0,0,1,.78-1.48A3.51,3.51,0,0,1,10.43,2.5a3.34,3.34,0,0,1,2.63,1.25,3,3,0,0,1,.78,1.48A4.14,4.14,0,0,1,13.74,7.27Z"/><path class="cls-3" d="M11.89,12.38H9a.35.35,0,0,0-.35.35.35.35,0,0,0,.35.35h2.88a.34.34,0,0,0,.35-.35A.35.35,0,0,0,11.89,12.38Z"/><path class="cls-3" d="M12.13,13.31H8.77a.11.11,0,0,0-.11.11.11.11,0,0,0,.11.12h3.36a.11.11,0,0,0,.11-.12A.11.11,0,0,0,12.13,13.31Z"/><path class="cls-3" d="M12.13,13.76H8.77a.11.11,0,0,0-.11.12.11.11,0,0,0,.11.11h3.36a.11.11,0,0,0,.11-.11A.11.11,0,0,0,12.13,13.76Z"/><path class="cls-3" d="M12.13,14.22H8.77a.11.11,0,0,0,0,.22h3.36a.11.11,0,0,0,0-.22Z"/><path class="cls-3" d="M12,14.72H9a.1.1,0,0,0-.1.11c0,.07,0,.12.1.12a2.24,2.24,0,0,1,.61.48c.25.28.1.41.88.41s.64-.17.89-.43A2.63,2.63,0,0,1,12,15a.11.11,0,0,0,.1-.12A.11.11,0,0,0,12,14.72Z"/></g></g></svg>