<svg xmlns="http://www.w3.org/2000/svg" viewBox="0 0 21.52 21.52"><defs><style>.cls-1{fill:#0f9091;}.cls-2{fill:#00babb;}.cls-3{fill:#fff;}</style></defs><title>Asset 3</title><g id="Layer_2" data-name="Layer 2"><g id="Vrstva_2" data-name="Vrstva 2"><rect class="cls-1" width="21.52" height="21.52" rx="4.82"/></g><g id="Vrstva_2_kopie" data-name="Vrstva 2 kopie"><path class="cls-2" d="M21.52,14c0,2.23-2.16,4-4.82,4H4.82C2.16,18,0,16.19,0,14V4C0,1.81,2.16,0,4.82,0H16.7c2.66,0,4.82,1.81,4.82,4Z"/></g><g id="Vrstva_1" data-name="Vrstva 1"><path class="cls-1" d="M11.29,6.46a12.19,12.19,0,0,0,1.08-.59l-.13-.3a10.43,10.43,0,0,0-1.18.34c-.37.15-1.71.7-1.6,1S10.92,6.62,11.29,6.46Z"/><path class="cls-1" d="M14.57,6.44a9.5,9.5,0,0,0-1.32-.73l-.14.18a10.63,10.63,0,0,0,1.11,1c.32.23,1.5,1.08,1.68.84S14.9,6.67,14.57,6.44Z"/><path class="cls-1" d="M13,5.06a11.07,11.07,0,0,0,.42-1.39c.07-.39.32-1.82,0-1.87s-.54,1.37-.61,1.77A10.15,10.15,0,0,0,12.75,5Z"/><path class="cls-1" d="M12.69,6.07c-.06.17.67-.81.56-.76.11,0-1.1-.19-.94-.11C12.15,5.12,12.63,6.24,12.69,6.07Z"/><polygon class="cls-1" points="12.15 10.1 11.97 12.81 13.15 12.81 12.98 10.28 12.15 10.1"/><polygon class="cls-1" points="12.39 6.43 12.23 8.88 12.9 9.12 12.73 6.43 12.39 6.43"/><path class="cls-1" d="M9,8l.38-.11a10.82,10.82,0,0,0-.2-1.49c-.12-.48-.54-2.21-.9-2.12s.07,1.82.19,2.29A11.43,11.43,0,0,0,9,8Z"/><path class="cls-1" d="M8.85,8.87A12.16,12.16,0,0,0,7.4,10c-.35.35-1.59,1.62-1.33,1.88s1.51-1,1.85-1.37A13.5,13.5,0,0,0,9,9.07Z"/><path class="cls-1" d="M11.73,8.93A13.46,13.46,0,0,0,10,8.58l-.08.29a12.85,12.85,0,0,0,1.62.76c.46.16,2.15.72,2.27.37S12.19,9.09,11.73,8.93Z"/><path class="cls-1" d="M9.53,9.14c0,.15.44-1.31.31-1.12.13-.19-1.33.2-1.13.3C8.51,8.22,9.57,9.29,9.53,9.14Z"/><polygon class="cls-1" points="9.19 9.41 8.68 17.24 10.12 17.24 9.61 9.41 9.19 9.41"/></g><g id="Vrstva_1_kopie" data-name="Vrstva 1 kopie"><path class="cls-3" d="M10.72,5.71a10.87,10.87,0,0,0,1.09-.59l-.13-.3a11.41,11.41,0,0,0-1.19.34c-.36.15-1.7.7-1.59,1S10.36,5.87,10.72,5.71Z"/><path class="cls-3" d="M14,5.69A9.5,9.5,0,0,0,12.69,5l-.14.18a10.63,10.63,0,0,0,1.11,1c.32.23,1.49,1.08,1.67.84S14.33,5.92,14,5.69Z"/><path class="cls-3" d="M12.43,4.31a11.07,11.07,0,0,0,.42-1.39c.07-.39.31-1.82,0-1.87s-.54,1.37-.61,1.77a10.15,10.15,0,0,0-.07,1.46Z"/><path class="cls-3" d="M12.12,5.32c0,.17.68-.81.57-.76.11,0-1.11-.19-.94-.11C11.58,4.37,12.07,5.49,12.12,5.32Z"/><polygon class="cls-3" points="11.59 9.35 11.41 12.06 12.58 12.06 12.42 9.53 11.59 9.35"/><polygon class="cls-3" points="11.82 5.68 11.66 8.13 12.34 8.37 12.17 5.68 11.82 5.68"/><path class="cls-3" d="M8.45,7.22l.39-.11a12.65,12.65,0,0,0-.2-1.49c-.12-.48-.54-2.21-.9-2.12s.07,1.82.18,2.29A13.3,13.3,0,0,0,8.45,7.22Z"/><path class="cls-3" d="M8.28,8.12A12.81,12.81,0,0,0,6.84,9.28c-.35.35-1.59,1.62-1.33,1.88s1.51-1,1.85-1.37A13.5,13.5,0,0,0,8.48,8.32Z"/><path class="cls-3" d="M11.17,8.18A13.46,13.46,0,0,0,9.4,7.83l-.08.29a13.5,13.5,0,0,0,1.61.76c.47.16,2.16.72,2.27.37S11.63,8.34,11.17,8.18Z"/><path class="cls-3" d="M9,8.39c0,.15.44-1.31.3-1.12.14-.19-1.32.2-1.12.3C8,7.47,9,8.54,9,8.39Z"/><polygon class="cls-3" points="8.63 8.66 8.11 16.49 9.56 16.49 9.04 8.66 8.63 8.66"/></g></g></svg>