<svg xmlns="http://www.w3.org/2000/svg" viewBox="0 0 21.52 21.52"><defs><style>.cls-1{fill:#a4b03d;}.cls-2{fill:#cadc49;}.cls-3{fill:#fff;}</style></defs><title>Asset 8</title><g id="Layer_2" data-name="Layer 2"><g id="Vrstva_2" data-name="Vrstva 2"><rect class="cls-1" width="21.52" height="21.52" rx="4.82"/></g><g id="Vrstva_2_kopie" data-name="Vrstva 2 kopie"><path class="cls-2" d="M21.52,14c0,2.22-2.16,4-4.82,4H4.82C2.16,18,0,16.19,0,14V4C0,1.81,2.16,0,4.82,0H16.7c2.66,0,4.82,1.81,4.82,4Z"/></g><g id="Vrstva_1" data-name="Vrstva 1"><path class="cls-1" d="M17.21,12v.05s0,0,0,0h0s0,0,0,0l0,0h0l0-.05h0l0,0h0v0h0s0,0,0,0h0v0h0a6.17,6.17,0,1,0-1.39,2l-.09.08h0l0,0c0-.07.1-.09.14-.14l.11-.14a1.61,1.61,0,0,0,.22-.29h0l.05-.06h0a1,1,0,0,0,.14-.15h0l.08-.08.07-.09c.05-.08.05-.08.06-.08a2.15,2.15,0,0,1,.18-.24v0h0l0-.06h0c.13-.21.24-.43.35-.65Zm.16-.7a.78.78,0,0,1-.09.27,0,0,0,0,1,0,0,0,0,0,0,1,0,0c.2-2.33.09-.21.1-.25Zm0-.43a1,1,0,0,1-.06.25h0c0-.06.07-.44.07-.25S17.38,10.86,17.38,10.87Zm.21-1.24s0-.17,0-.18.13.14,0,.18Zm0-.4a.71.71,0,0,0,.09-.38c0,.05-.09.13-.06.2s-.07-.37,0-.4.05.47.05.54,0,.15-.08.22c0-.29-.53-.76-.45-1.06-.06.23.47.65.47.88Zm-.07-1c.05,0,.07.26.07.27s-.06-.17,0,.1c-.08-.06-.05-.29-.06-.37Zm-.1-.43c0,.11.08.15.08.29s0,0,0,0c-.13-.26-.18-.56-.29-.82a2,2,0,0,1,.22.5Zm-2.5-3.19s.18.07.19.11l-.19-.11Zm.15.2c-.07,0-.34-.19-.31-.21s.25.22.31.21S15.09,4.81,15.09,4.82Zm-.34-.25a.48.48,0,0,1,.26.14s-.21-.12-.26-.14Zm-1.83-.49c.26,0,.43.27.66.37,0-.06-.06-.08.07,0a.09.09,0,0,0-.06-.06h0s.26.13.29.21-.07,0,0,0c-.25-.14-.6-.45-.87-.47l-.08-.07Zm.43,2a2.19,2.19,0,0,1,0-1c.05,0,.2.24.08.36s0,0,0,0A1.17,1.17,0,0,0,13.6,6c.25.4-.25.14-.25,0Zm.06.5c0,.12-.07-.06-.08-.08s.08,0,.08.08Zm-.8-2.18Zm-.08-.11c.1,0,0,0-.07,0s0,0,0,0,.1.09.08.08S12.52,4.24,12.53,4.25Zm0,0h0s0,0,0,0Zm0,0c.06,0,0,0,0,0Zm-.05-.06c-.17,0,0-.15,0,0Zm-.06-.2a.3.3,0,0,1,.12.13s-.13-.09-.12-.13Zm0,.06c.05,0,.09.1,0,0Zm0,0c.05,0,.09.11,0,0s-.1-.11,0,0Zm-.07.12c.13-.07.06.13.1.14a.18.18,0,0,1-.1-.14Zm-.09,0c0-.09.09.08.09.1s-.11,0-.09-.1Zm-.2.7c0,.13-.09,0-.06-.1a.17.17,0,0,1,.06.1S12,4.92,12,4.93Zm-.15-.11c-.05-.14,0,.1,0,0S11.85,4.83,11.84,4.82Zm-.09-.42c.15-.05.23.18.08.18,0,0-.1-.17-.08-.18Zm-.09.14c-.07-.12.09.17.06.13a.64.64,0,0,1,0-.24c.13.06.15.73,0,.79-.09-.22,0-.31,0-.51,0,0,0,0-.05,0s0,.1,0,.1c-.2-.8,0-.19,0-.19s0-.11,0-.16.07.13,0,.08Zm-1-.71h0c.08,0,.41-.09.27-.05l.36-.07h0c.06,0,0,0,0,0s-.15,0-.08,0-.41.17-.4.16l-.11,0s-.61.24-.18.06.27-.08,0,0l-.46.2a.61.61,0,0,0-.28.1c.14,0-.73.47-.73.45.3-.21,0-.08,0-.08s.14-.14,0,0c0-.06.32-.26.38-.24s-.19.22,0,.07c-.06,0,.2-.16.19-.15-.3.06.16,0,.21-.08-.25,0,.48-.28.42-.25a.83.83,0,0,1-.2.13A2.54,2.54,0,0,0,10.42,4a.25.25,0,0,0-.12,0c-.09,0,0-.05,0,0a1,1,0,0,1,.41-.17Zm-1.76.86s-.23.09,0,.16c0,.06-.26.22-.26.22s.09-.57.33-.45c0,0-.11.06-.1.07S8.9,4.69,8.91,4.69ZM8.82,6.11c0,.06,0,.09-.09.08s0-.12.09-.08Zm-.37-.47s-.1.11-.07.15,0,.07,0,.08-.07.64-.3.77a1.21,1.21,0,0,0,0-.19c-.07,0-.26.81-.29.37,0,.06.08.14,0,.25-.23,0-.08-.41-.12-.47a.32.32,0,0,0-.13,0c0-.38.83-.37.65-.91-.12,0-.08.15-.12,0,0,0-.06,0-.11,0,0-.16.34-.66.58-.58a1.79,1.79,0,0,1-.45.46c.1,0,.42-.49.48-.44a0,0,0,0,0,0,0,4,4,0,0,1-.29.29s.19-.15,0,0c0,0,.14-.12.14-.06s0,.22,0,.23S8.43,5.63,8.45,5.64Zm0-.65s-.23.35-.37.28A.58.58,0,0,1,8.44,5Zm.2-.32s.23-.23.24-.17c-.14,0-.19.07-.16.13s.2-.14.06,0c0,0,.12-.1.14-.07s-.35.28-.38.23.11,0,.1-.1S8.64,4.68,8.64,4.67Zm.65-.28s0,.05-.1.05.05-.08.1-.05Zm0,0a.61.61,0,0,1,.29-.14,1.11,1.11,0,0,1-.29.14C9.31,4.32,9.27,4.37,9.25,4.37Zm-.07,0a.77.77,0,0,1-.18.1l.18-.1ZM9,4.52s0,.18-.13.09,0-.11.13-.09Zm-.47.33a.37.37,0,0,1,.16-.1c.08.13-.23,0-.16.1Zm.15-.12c-.07.1.08-.06,0,0Zm-.18,0c-.07,0,.15-.16,0,0C8.5,4.74,8.53,4.72,8.53,4.73Zm0,.63c-.07,0,.13-.22.16-.17s-.12.14-.16.17ZM9.85,4.08A.34.34,0,0,1,10,4s-.18.12-.12.06Zm0,0a3.14,3.14,0,0,1,.61-.21c-.87,0,.47.11-.27.11a1.25,1.25,0,0,0-.33.16c.07,0-.38.26-.25.12a1.06,1.06,0,0,0-.21.11c.06,0,0,0,0,0s.47-.28.47-.28C10.06,4,9.82,4.13,9.87,4.1Zm-.47.12.17-.07c-.21,0,.11-.06.11-.06s0,0-.17.11c.13,0-.28.16-.29.16s.16-.16.18-.14S9.4,4.21,9.4,4.22Zm-.21,0c-.19.1.18,0,.19,0s-.32.16-.38.16l.19-.12Zm-.56.22A.63.63,0,0,1,9,4.26s-.07,0,.06,0a.76.76,0,0,1-.37.18l.13-.07c-.1,0-.25.11-.33.15s.23-.08.11-.07Zm-.06.06.1,0c-.26.21-.11.06-.1,0S8.51,4.52,8.57,4.49Zm-.14.16c.06,0,.06,0,.09-.07s0,0-.07,0,.32-.14.32-.17l-.22.19c.11,0,.21-.24.33-.19s-.31,0-.16.14a.38.38,0,0,1-.29.15s-.11,0-.11,0l.11-.07S8.42,4.65,8.43,4.65Zm-.23.43s-.34.32-.34.27.23-.32.28-.3-.05,0,0,0A.48.48,0,0,1,8.31,5c0,.07,0,0,0,0a.27.27,0,0,1-.12.09Zm0-.43c.13-.09-.31.37-.32.39s.41-.24,0,.07c.58-.29-.38.52-.44.52s0-.19-.09-.06.14-.27.16-.28S8,5,8,4.89c-.61.51-.12.07-.31.19,0-.16.46-.34.55-.43S8.22,4.66,8.22,4.65Zm-.7,1.09s.15-.18.15-.19-.19.33-.15.19Zm1.54,9.31c-1.55-.76-1.54-2.64-2.77-3.59h0a4.83,4.83,0,0,1-.69-2.18,2.63,2.63,0,0,0,0,.74,4.6,4.6,0,0,1,.23-2.41c0-.25,2-2.59,1.91-2.75s-.37.31-.38.33.12-.07,0,0l.09-.07-.09.14a.37.37,0,0,1,.19-.18,1.37,1.37,0,0,0-.17.17c.07,0-.2.47-.31.62a.33.33,0,0,1,.27-.25c0,.07-.13.14-.06.22s.06,0,.1,0a.34.34,0,0,1-.09.2c.25-.2.41-.47.66-.69-.12.22-.28.38-.38.61l.12-.12a1.21,1.21,0,0,1-.2.3c.19,0,.11-.33.35-.33-.12.47-.32.36-.52.57,0-.07,0-.11-.1-.11s0,.2-.11.27c0-.08-.07-.09-.08-.18-.15.19-.13.62-.46.93.22.1.08.69.05.87C7.05,7.89,7,7,7.4,6.83c.16.24,0,.4.1.63.09,0,.13-.1.17-.18.06.26-.13.78-.09.88.25-.09.09.18.12.18h0a1.57,1.57,0,0,0-.1.28c.12,0,.15.24.1.34-.11-.12.13-.16-.28-.16l.22-.35a.67.67,0,0,0-.76.23c.13,0,.19-.12.34-.11-.09.24.17.34-.16.54A.14.14,0,0,1,7.19,9c-.17-.21-.57.33-.61.48-.14-.27-.12.4-.16.31-.13.09-.09.55-.1.66s-.21-.55-.27-.6c0,.11-.18-.14-.23.14s0,.6.15.74a.29.29,0,0,0,0-.16.82.82,0,0,0,.25.64c0,.4.23.39.42.3s0,.16.06.21c.14-.26,1.08.69,1.13,1,.18-.06.26,0,.43.13.36.22.42.13.37.54-.2.09.14.38,0,.54-.33-.15-.14.32-.14.46a.52.52,0,0,1-.15-.06c.08.09.26.21,0,.18.05,0,.05.06,0,.06l.65.5C7.35,14.21,9.08,15.05,9.06,15.05ZM7.45,6.41s0,.22,0,.23-.1,0,0-.12a.58.58,0,0,0-.13.14c.09-.06,0-.08,0-.08a2.05,2.05,0,0,1,.25-.29.5.5,0,0,0,0,.12Zm-.15.34s-.1.08-.12,0,.12-.15.12,0Zm.06,1.82c0,.07,0-.16,0,0S7.36,8.56,7.36,8.57ZM6.81,11.1c0,.09-.26,0-.2-.15s.21.1.2.15Zm-.25-.19c0,.05-.47-.42-.33-.39s.36.29.33.39Zm2.67,4.21-.1,0,.1,0ZM9.06,15c1.3.56.15,0,.25.12A.91.91,0,0,0,9.06,15C9.15,15.08,9.09,15.06,9.06,15Zm.45-8.48c-.11.33-.51.31-.7.61-.08.14-.12.35-.27.42-.13-.2,0-.54-.11-.67l.18-.31c0,.07-.08.08-.11,0a.77.77,0,0,1,.22-.17s.19-.57.14-.53A.24.24,0,0,1,9,6.06,1.46,1.46,0,0,0,9,5.8s-.08,0-.1.08c-.19-.27.82-.63.33-.93.08-.24.29-.15.42-.32C9.31,4.54,11,3.85,10.78,4l.28-.12L10.8,4c.14-.06.26-.13.43-.22-.07,0,0,0,.08,0h0c.27-.17.06,0,.12,0-.11.1.22-.1.31-.14l-.14.07c.24-.11,0,0,.06,0s-.17.12-.09.07c-.27.22-.56.31-.62.68A1.71,1.71,0,0,0,11,4.24c-.06.08-.16.11-.08,0-.17.09,0,0,0,0-.22,0,.43-.29.3-.24s.19-.08-.11.09c0,0,.15-.08.16-.09,0,.15-.31.16-.31.27-.4.22.37-.22.33-.19,0,.19-.73.86-.87,1,.16,0,.12,0,0,.21.1,0,.19,0,.07.18a.12.12,0,0,0-.06-.08c-.12.23.05.12-.15.28,0,0,.1.06.06.11-.2,0-.23-.06-.32.13,0,0,.25.36,0,.39C10,6.13,10,6.05,10,6s-.16.2-.14.23L10,6.12c0,.09-.11.11-.16.12s.17,0,.22,0-.44.21-.52.28S9.52,6.56,9.51,6.56ZM11,4.41c.11-.14-.09.13,0,0ZM10.83,9c0,.06-.32.15-.36.08s0-.13.1-.15-.21-.77,0-.83c-.07.08,0,.12.05.1a3.89,3.89,0,0,1,.16.8Zm-.1-4.13c0,.07-.05.29-.16.23s.16-.28.16-.23Zm.12-.25s0-.09.06-.1-.06.1-.06.1ZM9.76,7.13c-.17-.21.38-.28.44-.15s-.14.36-.27.37-.13-.16-.17-.22Zm.44,1.65s.07-.45.22-.27c0,.19-.13.28-.22.27S10.14,8.78,10.2,8.78Zm3.66,4.82c0,.09-.51.85-.56.43,0-.25.56-.48.56-.43Zm2-1.48c0,.21-.17-.08,0-.13s.06.06,0,.13C15.82,12.36,15.83,12.11,15.82,12.12ZM16.34,11a3.3,3.3,0,0,1-.68,1.12c-.28-.38,0-.7-.36-.77,0-.33-.3-.21-.54-.25s-.59-.33-.76-.13c.38.28,1.09.31.35.88-1.1.85-.62-.74-1.42-.85.08.55.59,1.24,1.18,1.19.06.28-.53.91-.67,1.13,0,.06-.59.89-.57.72a1,1,0,0,1-.92.69c-.12,0-.46-.67-.47-.83.49-.42-.38-1-.4-1.24-.36-.47-1.58-.14-1.43-.94.09-.43.18-1.22.76-1.3a3.19,3.19,0,0,1,.87-.06c.16,0,.08.29.25.39.39.24.47,0,.79.06s.79.13.85-.27-.5-.06-.65-.35-.22.07-.24.19c-.25.06-.31-.86-.72-.76,0,.25.29.29.4.47-.18,0-.06.1-.18.17,0-.15-.33-.63-.55-.51s-.23,0-.33.06a.77.77,0,0,1-.28.48c-.22.22-.6.1-.53-.23,0,0,.05-.35.13-.36.42.1.49-.29.2-.5.23.11.81-.56.87-.8.22,0,.21.41.67.28s0-.43.33-.37c.14-.17-.22-.36.31-.36,0-.26-.36,0-.54-.11a2.06,2.06,0,0,0,.24-.64c-.59-.15-.38,1-.67,1.36-.22-.16,0-.34,0-.48s-.08,0-.09,0c-.13-.14-.22,0-.35.05-.12-.32.11-.48.11-.61.26-.33.56-.83.87-1.23,0,0,.51.24.7.35.45.29,0,.35-.24.24a.56.56,0,0,0,.34.45c-.09-.24-.07-.23.14-.08,0-.09-.09-.35.14-.28.07-.14-.14-.32,0-.37s0,.14.13.26a1.63,1.63,0,0,0,.23-.35c.07.06,0,.16,0,.25s.25-.48.3-.23c.08-.08-.05-.13,0-.24s.33.13.4.23c.07-.13-.34-.62-.37-.81.37,0,.52.88.54,1a.22.22,0,0,1,.16,0,2.67,2.67,0,0,0-.13-.4c.17,0,.3.37.39.5,0-.06,0-.12-.05-.17.69.4-.18-.35-.33-.48a1.47,1.47,0,0,1-.41-.59c.22,0,.48.41.61.4a5.63,5.63,0,0,1-.5-.53c.19-.08-.38-.85.25-.44A1.21,1.21,0,0,1,14,4.67a1.15,1.15,0,0,1,.33.21.1.1,0,0,1,.05-.1,1,1,0,0,1,.54.66c.08-.1-.06-.25-.13-.33a1.23,1.23,0,0,1,.28.23c-.09-.2,0,0,.17,0a.11.11,0,0,0-.1-.12c.22-.06.24.13.35.23-.08-.13.05.06.1,0s0,0,.05,0-.11-.17,0-.11c0,0-.18-.17-.16-.25a.42.42,0,0,1,.14.09c-.13-.18.28.07.38.16-.18-.24.07,0-.25-.31a5.45,5.45,0,0,1,1.6,2.41,3.25,3.25,0,0,0-.63-1.26l.09.15c-.14-.15.15.35.15.34s.19,1,.21.77c.54.36.42,1.46.3,2-.12-.24-.1-.14-.07-.28s0,.07-.12-.17a3,3,0,0,0-.07.32c0,.05.08,0,.12,0a3.25,3.25,0,0,1-.09,1.28,3.75,3.75,0,0,1-.23.79c0,.07-.39.67-.31.12-.19.19,0,.51-.09.73a.93.93,0,0,1,0-.83c-.06-.05-.09,0-.1.07-.05-.09-.08-.44-.19-.42h0C16.26,11.2,16.35,11,16.34,11ZM11.29,9.86c.09,0,.09.26.05.31a.91.91,0,0,1-.05-.31S11.25,9.9,11.29,9.86Zm.25.44c0-.13.2,0,.18,0s-.12,0-.18,0Zm5,2.28s-.11-.52-.08-.54c.2-.11.16.46.08.54Zm.23,0c0,.05-.15.09-.2,0s.25-.14.2,0Zm.18-.35c0,.07-.13.15-.17.09s.32-.72.4-.72c0,.17-.17.4-.23.63Zm.22-.29a.08.08,0,0,0-.07.09s0,0,0,0a.62.62,0,0,1-.12.26c0-.08,0,0-.06.1-.07-.11.2-.46.28-.54a.24.24,0,0,1-.07.13Z"/></g><g id="Vrstva_1_kopie" data-name="Vrstva 1 kopie"><path class="cls-3" d="M16.65,11.25v0h0v0s0,0,0,0h0l0-.05h0l0,0h0v0h0v0h0s0,0,0,0h0a6,6,0,0,0,.51-2.44,6.16,6.16,0,1,0-1.89,4.44l-.1.08h0l0,0c0-.07.09-.09.14-.14l.11-.14.21-.29h0l.05-.06h0s.1-.09.14-.15h0l.08-.08.07-.09c.05-.08.05-.08.06-.08a2.15,2.15,0,0,1,.18-.24l0,0h0a.21.21,0,0,0,0-.06h0a5.75,5.75,0,0,0,.34-.65Zm.16-.7a1.07,1.07,0,0,1-.09.27,0,0,0,0,1,0,0h0c.2-2.33.09-.21.1-.25Zm0-.43a.72.72,0,0,1-.07.25h0c0-.06.08-.44.08-.25S16.82,10.11,16.82,10.12ZM17,8.88s0-.17,0-.18.14.14,0,.18Zm0-.4a.82.82,0,0,0,.09-.38c0,.05-.09.13-.07.2s-.06-.37,0-.4,0,.47,0,.54,0,.15-.07.22c0-.29-.53-.76-.45-1.06-.06.23.47.65.47.88Zm-.07-1c.05,0,.07.26.07.27s-.06-.17,0,.1C17,7.8,17,7.57,17,7.49Zm-.11-.43c0,.11.09.15.08.29s0,0,0,0c-.14-.26-.18-.56-.29-.82a2,2,0,0,1,.21.5ZM14.38,3.87s.18.07.18.11a1.74,1.74,0,0,1-.18-.11Zm.14.2c-.06,0-.33-.19-.3-.21s.25.22.3.21S14.53,4.06,14.52,4.07Zm-.33-.25a.48.48,0,0,1,.26.14s-.21-.12-.26-.14Zm-1.83-.49c.25,0,.43.27.66.37,0-.06-.06-.08.07,0A.09.09,0,0,0,13,3.61h0s.25.13.29.21-.07,0,0,.05c-.26-.14-.6-.45-.87-.47l-.08-.07Zm.42,2a2.31,2.31,0,0,1,0-1c.05,0,.2.24.07.36t0,0a1.17,1.17,0,0,0,.19.69c.25.4-.26.14-.26,0Zm.07.5c0,.12-.08-.06-.08-.08s.08,0,.08.08ZM12,3.61c.07.06,0,0,0,0ZM12,3.5c.09,0-.06,0-.07,0s0,0,0,0,.1.09.08.08S12,3.49,12,3.5Zm0,0h0s0,0,0,0Zm0,0c.06,0,0,0,0,0Zm-.06-.06c-.16,0,0-.15,0,0Zm-.06-.2a.27.27,0,0,1,.13.13s-.13-.09-.13-.13Zm0,.06s.09.1,0,0Zm0,0c.05,0,.1.11,0,.05s-.09-.11,0-.05Zm-.07.12c.14-.07.07.13.11.14a.19.19,0,0,1-.11-.14Zm-.09,0c0-.09.09.08.1.1s-.12,0-.1-.1Zm-.2.7c0,.13-.08,0-.06-.1a.17.17,0,0,1,.06.1Zm-.14-.11c-.06-.14,0,.1,0,0S11.28,4.08,11.28,4.07Zm-.09-.42c.15,0,.22.18.08.18s-.1-.17-.08-.18Zm-.09.14c-.07-.12.09.17.06.13a.64.64,0,0,1,0-.24c.12.06.15.73,0,.79-.08-.22,0-.31,0-.51,0,0,0,0,0,0s0,.1,0,.1c-.2-.8,0-.19,0-.19a.92.92,0,0,0,0-.16s.08.13,0,.08Zm-1-.71h0c.08,0,.41-.09.27-.05L10.76,3h0c.06,0,.05,0,0,0s-.15,0-.08,0-.41.17-.41.16l-.11,0s-.6.24-.18.06.28-.08,0,0l-.46.2a.68.68,0,0,0-.29.1c.15,0-.72.47-.72.45.3-.21,0-.08,0-.08s.14-.14,0,0c0-.06.31-.26.38-.24s-.19.22,0,.07c-.07,0,.2-.16.18-.15-.3.06.17,0,.22-.08-.26,0,.48-.28.42-.25a.83.83,0,0,1-.2.13,2.87,2.87,0,0,0,.45-.17.3.3,0,0,0-.13,0c-.09,0,0,0,0,0a1,1,0,0,1,.4-.17Zm-1.75.86s-.23.09,0,.16c0,.06-.26.22-.26.22s.09-.57.33-.45c0,0-.1.06-.09.07S8.34,3.94,8.35,3.94ZM8.26,5.36c0,.06,0,.09-.09.08s0-.12.09-.08Zm-.38-.47S7.78,5,7.81,5s0,.07,0,.08-.07.64-.3.77a1.21,1.21,0,0,0,0-.19c-.07,0-.26.81-.3.37,0,.06.08.14,0,.25-.23,0-.08-.41-.12-.47a.27.27,0,0,0-.13,0c0-.38.82-.37.64-.91-.11,0-.07.15-.11,0,0,0-.06,0-.11,0,0-.16.33-.66.58-.58a2,2,0,0,1-.45.46c.09,0,.42-.49.48-.44s0,0,0,0a2,2,0,0,1-.29.29s.2-.15,0,0c0,0,.14-.12.14-.06s0,.22,0,.23S7.86,4.88,7.88,4.89Zm0-.65s-.23.35-.37.28a.58.58,0,0,1,.37-.28Zm.2-.32s.22-.23.24-.17c-.14,0-.19.07-.16.13s.2-.14.06,0,.12-.1.14-.07S8,4.07,8,4s.11,0,.1-.1S8.08,3.93,8.08,3.92Zm.64-.28s0,0-.09,0,0-.08.09,0Zm0,0A.62.62,0,0,1,9,3.48a.92.92,0,0,1-.28.14C8.75,3.57,8.7,3.62,8.69,3.62Zm-.07-.05a.77.77,0,0,1-.18.1s.29-.17.18-.1Zm-.16.2s0,.18-.13.09,0-.11.13-.09ZM8,4.1S8.14,4,8.16,4s-.23,0-.17.1S8,4.1,8,4.1ZM8.15,4c-.07.1.08-.06,0,0S8.16,4,8.15,4ZM8,4c-.07,0,.15-.16,0,0C7.94,4,8,4,8,4Zm0,.63c-.08,0,.13-.22.16-.17s-.12.14-.16.17ZM9.28,3.33a.52.52,0,0,1,.13-.06s-.18.12-.13.06Zm0,0a3.23,3.23,0,0,1,.62-.21c-.88,0,.47.11-.27.11a1.31,1.31,0,0,0-.34.16c.08,0-.37.26-.24.12a1.06,1.06,0,0,0-.21.11c.06-.05,0,0,0,0s.48-.28.47-.28C9.5,3.26,9.26,3.38,9.3,3.35Zm-.46.12L9,3.4c-.21,0,.1-.06.1-.06s.05,0-.16.11c.12,0-.29.16-.29.16s.15-.16.18-.14S8.83,3.46,8.84,3.47Zm-.21,0c-.19.1.18,0,.18,0s-.32.16-.37.16l.19-.12Zm-.56.22a.63.63,0,0,1,.4-.17c0,.05-.07,0,.06,0a.76.76,0,0,1-.37.18l.13-.07c-.1,0-.25.11-.33.15s.22-.08.11-.07ZM8,3.74l.11-.05c-.27.21-.12.06-.11.05Zm-.14.16c.06,0,.06,0,.1-.07s0,0-.08,0,.33-.14.33-.17A1.37,1.37,0,0,0,8,3.86c.11,0,.21-.24.33-.19s-.31.05-.16.14A.38.38,0,0,1,7.87,4s-.11,0-.11,0l.1-.07Zm-.22.43s-.34.32-.34.27.23-.32.28-.3,0,0,0,0a.43.43,0,0,1,.2-.15c0,.07,0,0,0,0a.2.2,0,0,1-.11.09Zm0-.43c.14-.09-.3.37-.31.39s.41-.24,0,.07c.58-.29-.38.52-.44.52s0-.19-.1-.06S7,4.55,7,4.54s.44-.33.44-.4c-.61.51-.11.07-.3.19,0-.16.46-.34.54-.43S7.65,3.91,7.65,3.9ZM7,5s.15-.18.15-.19S6.92,5.13,7,5ZM8.5,14.3C7,13.54,7,11.66,5.72,10.71h0A4.83,4.83,0,0,1,5,8.53a2.3,2.3,0,0,0,0,.74,4.6,4.6,0,0,1,.23-2.41c0-.25,2-2.59,1.91-2.75s-.37.31-.39.33.13-.07.05,0L7,4.36a.71.71,0,0,1-.1.14.47.47,0,0,1,.19-.18l-.17.17c.08,0-.2.47-.3.62a.33.33,0,0,1,.27-.25c0,.07-.13.14-.06.22s.06,0,.1,0a.3.3,0,0,1-.1.2c.26-.2.42-.47.67-.69a5.6,5.6,0,0,0-.38.61L7.2,5a1,1,0,0,1-.21.3c.2,0,.11-.33.36-.33-.12.47-.33.36-.52.57,0-.07,0-.11-.1-.11s0,.2-.12.27c0-.08-.06-.09-.07-.18-.16.19-.14.62-.47.93.23.1.09.69,0,.87.37-.22.29-1.08.72-1.28.15.24,0,.4.1.63.08,0,.13-.1.17-.18.06.26-.13.78-.09.88.25-.09.09.18.12.18h0S7,7.84,7,7.87s.15.24.11.34c-.11-.12.13-.16-.28-.16.06-.12.14-.23.21-.35a.66.66,0,0,0-.75.23c.13,0,.18-.12.34-.11-.09.24.16.34-.16.54,0-.08,0-.13.13-.15-.18-.21-.57.33-.61.48-.14-.27-.12.4-.17.31-.12.09-.08.55-.09.66a1.59,1.59,0,0,0-.28-.6c0,.11-.17-.14-.22.14s0,.6.15.74a.29.29,0,0,0,0-.16.84.84,0,0,0,.24.64c0,.4.24.39.43.3s0,.16.06.21c.14-.26,1.07.69,1.13,1,.18-.06.25,0,.42.13.37.22.43.13.38.54-.2.09.14.38,0,.54-.32-.15-.13.32-.14.46l-.15-.06c.08.09.26.21.06.18,0,0,0,.06,0,.06l.65.5C6.79,13.46,8.52,14.3,8.5,14.3ZM6.88,5.66s0,.22,0,.23-.1,0,0-.12a.55.55,0,0,0-.12.14c.08-.06,0-.08,0-.08s.2-.28.25-.29l0,.12ZM6.74,6s-.11.08-.12,0,.12-.15.12,0ZM6.8,7.82c0,.07,0-.16,0,0S6.8,7.81,6.8,7.82Zm-.55,2.53c0,.09-.26,0-.2-.15s.21.1.2.15ZM6,10.16c0,.05-.47-.42-.33-.39s.35.29.33.39S6,10.15,6,10.16Zm2.67,4.21-.1,0,.1,0Zm-.17-.08c1.3.56.14,0,.25.12a.91.91,0,0,0-.25-.12C8.59,14.33,8.53,14.31,8.5,14.29ZM9,5.81c-.12.33-.51.31-.7.61-.08.14-.12.35-.27.42-.14-.2,0-.54-.11-.67l.18-.31c-.05.07-.08.08-.11,0a.77.77,0,0,1,.22-.17s.19-.57.14-.53a.18.18,0,0,1,.08.11s.08-.31.07-.26-.08,0-.1.08c-.2-.27.81-.63.33-.93.08-.24.29-.15.42-.32-.35-.09,1.32-.78,1.11-.65l.29-.12-.26.17a4.33,4.33,0,0,0,.42-.22c-.06,0,0,0,.09,0h0c.27-.17.06,0,.12,0-.11.1.22-.1.31-.14L11,2.92c.24-.11,0,0,.06,0S10.91,3,11,3c-.28.22-.56.31-.62.68a1.71,1.71,0,0,0,.11-.14c-.07.08-.17.11-.08,0-.17.09-.05,0,0,0-.22,0,.43-.29.3-.24s.19-.08-.11.09c0,0,.15-.08.16-.09,0,.15-.31.16-.31.27-.4.22.37-.22.33-.19,0,.19-.73.86-.87,1,.16,0,.11,0,0,.21.1,0,.19,0,.07.18a.14.14,0,0,0-.07-.08c-.11.23.05.12-.15.28,0,0,.1.06.07.11-.2,0-.24-.06-.32.13,0,0,.24.36,0,.39a1.84,1.84,0,0,0-.09-.25s-.17.2-.15.23l.17-.08c0,.09-.12.11-.16.12s.17,0,.22,0S9,5.74,9,5.81Zm1.46-2.15c.11-.14-.09.13,0,0Zm-.14,4.55c0,.06-.32.15-.37.08A.13.13,0,0,1,10,8.14s-.21-.77,0-.83c-.06.08,0,.12.06.1a4.7,4.7,0,0,1,.16.8Zm-.1-4.13c0,.07-.05.29-.16.23s.16-.28.16-.23Zm.12-.25s0-.09.05-.1-.05.1-.05.1ZM9.19,6.38c-.16-.21.39-.28.45-.15s-.14.36-.28.37-.12-.16-.17-.22S9.22,6.4,9.19,6.38ZM9.64,8s.07-.45.22-.27c0,.19-.14.28-.22.27S9.58,8,9.64,8Zm3.66,4.82c0,.09-.51.85-.56.43,0-.25.56-.48.56-.43Zm2-1.48c0,.21-.17-.08,0-.13s.06.06,0,.13C15.25,11.61,15.26,11.36,15.26,11.37Zm.52-1.13a3.33,3.33,0,0,1-.69,1.12c-.27-.38.05-.7-.35-.77,0-.33-.3-.21-.54-.25s-.6-.33-.77-.13c.38.28,1.1.31.35.88-1.1.85-.61-.74-1.41-.85.07.55.59,1.24,1.18,1.19.06.28-.53.91-.67,1.13,0,.06-.59.89-.57.72a1,1,0,0,1-.92.69c-.12,0-.46-.67-.47-.83.49-.42-.38-1-.4-1.24-.36-.47-1.58-.14-1.43-.94.08-.43.18-1.22.76-1.3a3.19,3.19,0,0,1,.87-.06c.16,0,.08.29.25.39.39.24.47,0,.78.06s.8.13.86-.27-.5-.06-.65-.35-.23.07-.24.19c-.25.06-.32-.86-.72-.76,0,.25.29.29.4.47-.18,0-.06.1-.18.17,0-.15-.34-.63-.56-.51s-.22,0-.32.06a.77.77,0,0,1-.28.48c-.22.22-.61.1-.53-.23,0,0,.05-.35.13-.36.42.1.48-.29.19-.5.24.11.82-.56.87-.8.22,0,.21.41.68.28.32-.09,0-.43.33-.37.14-.17-.22-.36.31-.36,0-.26-.36,0-.54-.11a2.06,2.06,0,0,0,.24-.64c-.59-.15-.38,1-.67,1.36-.23-.16,0-.34,0-.48s-.08,0-.09,0c-.13-.14-.22,0-.35,0-.13-.32.1-.48.1-.61.26-.33.56-.83.87-1.23,0,0,.52.24.71.35.45.29,0,.35-.24.24a.53.53,0,0,0,.34.45c-.09-.24-.07-.23.14-.08,0-.09-.1-.35.14-.28.07-.14-.14-.32,0-.37s0,.14.14.26A1.63,1.63,0,0,0,13,5.79c.07.06,0,.16,0,.25s.25-.48.3-.23c.08-.08,0-.13,0-.24s.33.13.4.23c.07-.13-.34-.62-.37-.81.37,0,.52.88.54,1a.23.23,0,0,1,.16,0c0-.14-.08-.27-.13-.4.17,0,.29.37.39.5,0-.06,0-.12-.05-.17.69.4-.18-.35-.33-.48a1.47,1.47,0,0,1-.41-.59c.22,0,.48.41.61.4-.11-.11-.48-.47-.51-.53.2-.08-.37-.85.26-.44a1.21,1.21,0,0,1-.44-.43,1.15,1.15,0,0,1,.33.21.1.1,0,0,1,.05-.1,1.08,1.08,0,0,1,.54.66c.07-.1-.07-.25-.14-.33a1.09,1.09,0,0,1,.29.23c-.1-.2,0,0,.17,0a.11.11,0,0,0-.1-.12c.22-.06.23.13.35.23-.08-.13.05.06.1,0s0,0,0,0-.11-.17,0-.11c0,0-.18-.17-.16-.25a.38.38,0,0,1,.13.09c-.12-.18.29.07.38.16-.17-.24.08,0-.24-.31a5.45,5.45,0,0,1,1.6,2.41,3.25,3.25,0,0,0-.63-1.26,1.09,1.09,0,0,0,.08.15c-.13-.15.16.35.16.34s.19,1,.21.77c.54.36.41,1.46.3,2-.12-.24-.1-.14-.07-.28s-.05.07-.12-.17a3,3,0,0,0-.07.32c0,.05.08,0,.12,0a3.25,3.25,0,0,1-.09,1.28,3.75,3.75,0,0,1-.23.79c0,.07-.39.67-.31.12-.2.19,0,.51-.09.73a.93.93,0,0,1,0-.83c-.06-.05-.09,0-.1.07-.06-.09-.08-.44-.19-.42h0C15.7,10.45,15.79,10.23,15.78,10.24ZM10.72,9.11c.1,0,.09.26.06.31a1.22,1.22,0,0,1-.06-.31S10.69,9.15,10.72,9.11Zm.26.44c0-.13.2,0,.17,0s-.11,0-.17,0Zm5,2.28s-.1-.52-.07-.54c.2-.11.16.46.07.54Zm.24,0c0,.05-.15.09-.2,0s.25-.14.2,0S16.19,11.79,16.18,11.83Zm.18-.35c0,.07-.13.15-.17.09s.32-.72.4-.72c0,.17-.17.4-.23.63Zm.22-.29s-.08,0-.07.09,0,0,0,0a.77.77,0,0,1-.12.26c0-.08,0,0-.07.1-.06-.11.21-.46.28-.54a.18.18,0,0,1-.06.13Z"/></g></g></svg>